<?xml version="1.0" standalone="no"?>
<!DOCTYPE svg PUBLIC "-//W3C//DTD SVG 20010904//EN"
 "http://www.w3.org/TR/2001/REC-SVG-20010904/DTD/svg10.dtd">
<svg version="1.0" xmlns="http://www.w3.org/2000/svg"
 width="512.000000pt" height="512.000000pt" viewBox="0 0 512.000000 512.000000"
 preserveAspectRatio="xMidYMid meet">
<metadata>
Created by potrace 1.16, written by Peter Selinger 2001-2019
</metadata>
<g transform="translate(0.000000,512.000000) scale(0.100000,-0.100000)"
fill="#000000" stroke="none">
<path d="M187 4932 c-147 -147 -188 -194 -185 -211 2 -18 40 15 213 189 175
175 206 210 185 210 -19 0 -69 -44 -213 -188z"/>
<path d="M287 4832 c-227 -227 -288 -294 -285 -311 2 -17 59 35 313 289 255
255 305 310 285 310 -20 0 -89 -64 -313 -288z"/>
<path d="M387 4732 c-307 -307 -388 -393 -385 -411 2 -17 79 55 413 389 335
335 405 410 385 410 -20 0 -109 -84 -413 -388z"/>
<path d="M487 4632 c-388 -388 -488 -493 -485 -511 2 -17 99 74 513 489 415
415 505 510 485 510 -20 0 -129 -104 -513 -488z"/>
<path d="M921 4866 c-205 -205 -261 -256 -288 -261 -48 -9 -100 -59 -114 -108
-10 -35 -53 -83 -266 -297 -194 -196 -253 -261 -253 -280 0 -20 45 20 255 230
l255 255 0 -75 0 -75 -255 -255 c-197 -197 -255 -261 -255 -280 0 -21 44 19
255 230 l255 255 0 -75 0 -75 -255 -255 c-197 -197 -255 -261 -255 -280 0 -21
44 19 255 230 l255 255 0 -75 0 -75 -255 -255 c-197 -197 -255 -261 -255 -280
0 -21 44 19 255 230 l255 255 0 -75 0 -75 -255 -255 c-197 -197 -255 -261
-255 -280 0 -21 44 19 255 230 l255 255 0 -75 0 -75 -255 -255 c-197 -197
-255 -261 -255 -280 0 -21 44 19 254 229 l254 254 4 -69 4 -69 -258 -260
c-198 -200 -258 -266 -258 -285 0 -20 48 23 270 245 l269 269 29 -27 c15 -15
33 -27 40 -27 7 0 12 -3 12 -8 0 -4 -139 -147 -310 -317 -241 -241 -310 -315
-310 -335 0 -20 60 34 332 307 310 308 336 332 375 338 24 4 57 16 75 28 36
24 78 97 78 137 0 37 893 930 930 930 40 0 113 42 137 78 12 18 24 51 28 75 6
39 30 65 338 375 272 272 327 332 307 332 -19 0 -94 -69 -335 -310 l-310 -309
-34 40 -34 41 269 269 c221 221 264 269 244 269 -19 0 -85 -60 -285 -258
l-260 -258 -69 4 -69 4 254 254 c210 210 250 254 229 254 -19 0 -83 -58 -280
-255 l-255 -255 -75 0 -75 0 255 255 c211 211 251 255 230 255 -19 0 -83 -58
-280 -255 l-255 -255 -75 0 -75 0 255 255 c211 211 251 255 230 255 -19 0 -83
-58 -280 -255 l-255 -255 -75 0 -75 0 255 255 c211 211 251 255 230 255 -19 0
-83 -58 -280 -255 l-255 -255 -75 0 -75 0 255 255 c211 211 251 255 230 255
-19 0 -83 -58 -280 -255 l-255 -255 -75 0 -75 0 255 255 c211 211 251 255 230
255 -19 0 -83 -57 -279 -254z m69 -731 l-125 -125 -3 71 -3 72 53 54 52 53 76
0 75 0 -125 -125z m100 -100 l-225 -225 -3 72 -3 72 153 153 153 153 75 0 75
0 -225 -225z m100 -100 l-325 -325 -3 72 -3 72 253 253 253 253 75 0 75 0
-325 -325z m100 -100 l-425 -425 -3 72 -3 72 353 353 353 353 75 0 75 0 -425
-425z"/>
<path d="M1387 3732 c-1110 -1110 -1388 -1393 -1385 -1411 2 -17 276 252 1413
1389 1135 1135 1405 1410 1385 1410 -20 0 -309 -284 -1413 -1388z"/>
<path d="M2400 4544 c-316 -317 -606 -601 -645 -632 -106 -85 -191 -168 -261
-257 -34 -44 -385 -402 -778 -795 -566 -565 -716 -720 -716 -740 0 -20 130
105 686 660 635 634 684 681 656 625 -16 -33 -39 -89 -51 -125 l-21 -65 -635
-635 c-501 -501 -635 -640 -635 -660 0 -20 118 93 626 600 344 344 623 616
620 605 -3 -11 -10 -51 -16 -90 l-11 -70 -609 -610 c-481 -480 -610 -615 -610
-635 0 -20 116 91 610 585 l610 610 0 -75 0 -75 -610 -610 c-481 -481 -610
-615 -610 -635 0 -20 114 89 604 579 l603 603 -13 -64 c-8 -34 -14 -74 -14
-88 0 -20 -127 -152 -590 -615 -465 -465 -590 -595 -590 -615 0 -20 45 20 255
230 l255 255 0 -75 0 -75 -255 -255 c-197 -197 -255 -261 -255 -280 0 -21 44
19 255 230 l255 255 0 -75 0 -75 -255 -255 c-197 -197 -255 -261 -255 -280 0
-21 44 19 255 230 l255 255 0 -75 0 -75 -255 -255 c-197 -197 -255 -261 -255
-280 0 -21 44 19 255 230 l255 255 0 -75 0 -75 -255 -255 c-197 -197 -255
-261 -255 -280 0 -21 44 19 255 230 l255 255 0 -75 0 -75 -255 -255 c-197
-197 -255 -261 -255 -280 0 -21 44 19 255 230 l255 255 0 -75 0 -75 -255 -255
c-197 -197 -255 -261 -255 -280 0 -21 45 20 258 232 l257 257 34 -40 34 -41
-264 -264 c-218 -218 -259 -264 -239 -264 20 0 83 58 282 258 l258 257 71 -3
72 -4 -254 -254 c-210 -210 -250 -254 -229 -254 19 0 83 58 280 255 l255 255
75 0 75 0 -255 -255 c-211 -211 -251 -255 -230 -255 19 0 83 58 280 255 l255
255 75 0 75 0 -255 -255 c-211 -211 -251 -255 -230 -255 19 0 83 58 280 255
l255 255 75 0 75 0 -255 -255 c-211 -211 -251 -255 -230 -255 19 0 83 58 280
255 l255 255 75 0 75 0 -255 -255 c-211 -211 -251 -255 -230 -255 19 0 83 58
280 255 l255 255 75 0 75 0 -255 -255 c-210 -210 -250 -255 -230 -255 19 0 82
57 275 250 186 185 264 256 305 277 46 24 59 38 82 82 19 39 73 101 188 216
l162 162 60 -15 60 -15 -478 -478 c-390 -390 -474 -479 -454 -479 20 0 127
102 500 475 l475 475 75 0 75 0 -475 -475 c-387 -387 -470 -475 -450 -475 20
0 126 101 499 474 l474 474 69 7 c39 3 77 9 87 12 9 3 -202 -213 -469 -481
-395 -396 -480 -486 -460 -486 20 0 131 106 520 495 481 481 497 496 555 515
33 11 94 38 135 60 75 40 72 37 -480 -515 -450 -450 -550 -555 -530 -555 37 0
3040 3003 3040 3040 0 20 -157 -132 -815 -790 l-814 -814 43 84 c24 47 51 108
61 135 16 45 93 125 771 805 595 596 754 760 754 780 0 20 -143 -118 -743
-718 l-743 -743 11 75 10 75 60 48 c33 27 80 77 105 113 25 35 325 345 673
694 492 496 627 637 627 656 0 20 -115 -90 -601 -575 -383 -382 -599 -591
-595 -575 3 14 9 53 13 86 l6 62 588 588 c465 465 589 594 589 614 0 20 -111
-86 -589 -564 l-588 -588 -8 67 -7 68 273 273 c177 177 282 275 300 279 33 7
83 59 103 105 9 21 114 133 265 285 194 193 251 255 251 275 0 21 -44 -19
-255 -230 l-255 -255 0 75 0 75 255 255 c197 197 255 261 255 280 0 21 -44
-19 -255 -230 l-255 -255 0 75 0 75 255 255 c197 197 255 261 255 280 0 21
-44 -19 -255 -230 l-255 -255 0 75 0 75 255 255 c197 197 255 261 255 280 0
21 -44 -19 -255 -230 l-255 -255 0 75 0 75 255 255 c197 197 255 261 255 280
0 21 -44 -19 -255 -230 l-255 -255 0 75 0 75 255 255 c197 197 255 261 255
280 0 21 -44 -19 -254 -229 l-254 -254 -4 72 -3 71 258 258 c199 199 257 262
257 282 0 20 -46 -21 -264 -239 l-264 -264 -41 34 -40 34 257 258 c212 212
253 257 232 257 -19 0 -83 -58 -280 -255 l-255 -255 -75 0 -75 0 255 255 c211
211 251 255 230 255 -19 0 -83 -58 -280 -255 l-255 -255 -75 0 -75 0 255 255
c211 211 251 255 230 255 -19 0 -83 -58 -280 -255 l-255 -255 -75 0 -75 0 255
255 c211 211 251 255 230 255 -19 0 -83 -58 -280 -255 l-255 -255 -75 0 -75 0
255 255 c211 211 251 255 230 255 -19 0 -83 -58 -280 -255 l-255 -255 -75 0
-75 0 255 255 c211 211 251 255 230 255 -19 0 -83 -58 -280 -255 l-255 -255
-75 0 -75 0 255 255 c210 211 250 255 230 255 -20 0 -129 -104 -510 -485 -306
-306 -490 -483 -500 -481 -8 2 -37 7 -64 11 l-49 7 474 474 c386 386 469 474
449 474 -20 0 -127 -102 -500 -475 l-475 -475 -75 0 -75 0 475 475 c386 386
470 475 450 475 -20 0 -128 -102 -500 -475 l-475 -474 -70 -11 c-38 -6 -79
-13 -90 -16 -11 -3 200 215 470 485 399 400 485 491 465 491 -20 0 -132 -107
-524 -499 -458 -458 -504 -501 -550 -516 -28 -9 -85 -32 -126 -51 l-75 -35
550 551 c447 447 545 550 525 550 -20 0 -146 -122 -600 -576z m785 -194 c5 -8
-32 -51 -104 -124 l-112 -112 -60 15 -59 16 152 152 153 153 11 -44 c6 -24 15
-49 19 -56z m28 -192 l-99 -99 -34 14 c-19 8 -44 17 -54 21 -17 6 -5 21 83
110 l102 102 50 -24 51 -25 -99 -99z m168 -32 l-134 -134 -48 26 -48 27 107
108 107 107 75 0 75 0 -134 -134z m160 -40 l-174 -174 -44 31 -44 31 143 143
143 143 75 0 75 0 -174 -174z m154 -46 l-219 -220 -31 28 c-16 15 -34 30 -40
35 -5 4 69 86 175 192 l185 185 75 0 75 0 -220 -220z m150 -50 l-270 -270 -37
37 -38 37 232 233 233 233 75 0 75 0 -270 -270z m415 242 c0 -22 -52 -79 -300
-327 -164 -164 -301 -297 -303 -295 -1 3 -16 22 -31 44 l-29 38 284 284 284
284 47 0 c46 0 48 -1 48 -28z m-261 -488 l-263 -263 -27 47 -28 47 287 288
287 287 3 -72 3 -72 -262 -262z m32 -167 l-229 -230 -21 41 c-12 23 -21 47
-21 54 0 7 111 124 248 261 l247 247 3 -72 3 -72 -230 -229z m27 -174 c-111
-111 -205 -200 -208 -197 -3 3 -12 26 -21 52 l-17 47 222 223 221 222 3 -72 3
-72 -203 -203z m14 -186 l-189 -189 -12 63 -11 64 198 198 197 197 3 -72 3
-72 -189 -189z m212 33 c4 -11 -54 -75 -194 -215 l-200 -200 0 75 0 75 182
182 182 182 12 -42 c6 -23 14 -49 18 -57z m109 -80 c9 0 17 -3 17 -7 0 -5
-111 -119 -247 -255 l-247 -248 -13 43 c-7 23 -13 51 -13 62 0 13 77 97 211
231 l212 212 31 -19 c17 -10 39 -19 49 -19z m-1852 -884 c-322 -322 -588 -583
-592 -580 -4 2 -15 25 -25 50 l-17 46 493 493 493 493 106 40 c58 22 110 41
116 41 5 1 -253 -262 -574 -583z m651 501 l21 -29 -589 -589 c-324 -324 -592
-589 -596 -589 -4 0 -20 18 -35 41 l-27 40 589 589 c466 466 592 587 602 578
8 -6 23 -24 35 -41z m-837 -487 c-500 -500 -463 -471 -478 -375 l-7 41 368
367 368 368 95 29 c52 15 98 29 104 29 5 1 -197 -206 -450 -459z m373 -227
l-603 -603 -37 37 -38 37 596 597 597 597 44 -31 44 -31 -603 -603z m-523 277
l-330 -330 -10 48 c-6 26 -14 52 -18 58 -3 6 107 123 246 262 l252 251 80 20
c44 10 87 19 95 20 8 1 -134 -147 -315 -329z m647 -353 l-611 -611 -40 27
c-23 15 -41 31 -41 35 0 4 271 278 602 609 l602 602 49 -26 50 -25 -611 -611z
m-802 398 c-205 -205 -236 -233 -250 -221 -8 8 -30 20 -48 28 l-32 13 192 192
193 192 80 15 c44 7 84 14 90 15 5 1 -96 -105 -225 -234z m-186 14 l-181 -181
-30 15 c-69 36 -69 35 87 192 143 144 144 144 194 148 122 8 129 25 -70 -174z
m1685 170 c22 -8 31 -17 31 -33 0 -15 -177 -198 -599 -620 -652 -652 -599
-607 -675 -569 l-29 15 609 609 c335 335 614 609 620 609 6 0 25 -5 43 -11z
m-1852 -136 c-138 -138 -135 -137 -159 -60 l-11 38 68 69 c72 73 73 73 190 78
l40 2 -128 -127z m1878 -80 c-24 -61 -58 -99 -139 -150 -79 -51 -99 -73 -116
-124 -9 -27 -108 -132 -390 -414 l-378 -378 -58 7 c-32 4 -60 9 -63 12 -3 3
256 266 574 585 l580 579 3 -37 c2 -20 -4 -56 -13 -80z m-2589 -231 c-141
-141 -206 -200 -216 -196 -8 4 -34 11 -58 17 l-43 11 253 253 253 253 6 -67 6
-68 -201 -203z m244 53 c0 -6 -83 -93 -184 -194 l-183 -183 -25 49 -24 48 190
192 190 192 18 -47 c10 -26 18 -52 18 -57z m80 -122 c0 -5 -101 -109 -225
-233 l-225 -225 0 75 0 75 197 197 196 196 29 -39 c15 -21 28 -42 28 -46z m71
-60 c21 -16 39 -30 39 -33 0 -3 -126 -131 -280 -285 l-280 -280 0 75 0 75 237
237 c131 131 239 238 241 238 2 0 21 -12 43 -27z m1919 -73 c-5 -36 -10 -72
-10 -80 0 -8 -116 -130 -257 -272 -243 -243 -259 -258 -305 -268 -27 -5 -66
-10 -86 -10 -37 0 -34 3 313 350 192 192 350 348 352 347 1 -2 -2 -32 -7 -67z
m-1776 -34 c5 -17 -54 -81 -327 -354 l-332 -332 -3 72 -3 72 297 297 297 297
33 -15 c18 -9 35 -25 38 -37z m25 -132 l13 -57 -348 -349 -349 -348 -3 72 -3
72 333 333 c183 183 336 333 339 333 3 0 11 -25 18 -56z m1671 -83 c-67 -125
-179 -236 -303 -301 -62 -32 -61 -31 133 164 107 108 196 196 198 196 2 0 -11
-27 -28 -59z m-1954 -468 c-292 -294 -356 -353 -378 -353 -27 0 -28 2 -28 47
l0 48 357 357 357 357 22 -52 22 -52 -352 -352z m136 -65 l-287 -288 -75 0
-75 0 334 334 335 335 27 -47 28 -47 -287 -287z m342 211 l29 -41 -229 -229
-229 -229 -75 0 -75 0 270 270 c148 149 272 270 275 270 3 0 18 -19 34 -41z
m93 -104 l37 -36 -179 -179 -180 -180 -75 0 -75 0 215 215 c118 118 216 215
218 215 2 0 19 -16 39 -35z m102 -92 c20 -14 38 -28 41 -30 2 -2 -56 -64 -130
-138 l-135 -135 -75 0 -75 0 165 165 c91 91 167 165 169 165 2 0 20 -12 40
-27z m59 -220 l-114 -114 -37 16 c-20 8 -47 15 -59 15 -18 0 2 25 102 125
l124 124 48 -26 49 -27 -113 -113z m210 72 l44 -18 -143 -143 c-78 -79 -146
-141 -151 -138 -4 3 -8 13 -8 22 0 9 -9 28 -20 42 l-19 25 117 118 c64 64 121
115 127 113 5 -2 30 -12 53 -21z"/>
<path d="M3685 1430 c-1151 -1151 -1425 -1430 -1405 -1430 37 0 2843 2807
2838 2839 -2 17 -280 -256 -1433 -1409z"/>
<path d="M4761 2306 c-244 -244 -362 -356 -381 -360 -40 -8 -86 -50 -104 -98
-26 -65 -930 -970 -1001 -1002 -58 -27 -78 -47 -100 -101 -12 -29 -115 -139
-368 -392 -288 -289 -347 -353 -327 -353 19 0 98 73 351 326 l326 325 25 -48
26 -48 -277 -277 c-227 -229 -271 -278 -251 -278 19 0 86 61 292 267 259 259
268 266 293 255 14 -7 43 -12 63 -12 37 0 37 0 -218 -255 -211 -211 -251 -255
-230 -255 19 0 83 58 280 255 l255 255 75 0 75 0 -255 -255 c-211 -211 -251
-255 -230 -255 19 0 83 58 280 255 l255 255 75 0 75 0 -255 -255 c-211 -211
-251 -255 -230 -255 19 0 83 58 280 255 l255 255 75 0 75 0 -255 -255 c-211
-211 -251 -255 -230 -255 19 0 83 58 280 255 l255 255 75 0 75 0 -255 -255
c-211 -211 -251 -255 -230 -255 19 0 83 58 280 255 l255 255 75 0 75 0 -255
-255 c-211 -211 -251 -255 -230 -255 19 0 83 58 280 255 232 232 258 255 288
255 81 0 152 66 160 149 4 48 5 49 258 302 197 196 254 260 254 279 0 21 -44
-19 -255 -230 l-255 -255 0 75 0 75 255 255 c197 197 255 261 255 280 0 21
-44 -19 -255 -230 l-255 -255 0 75 0 75 255 255 c197 197 255 261 255 280 0
21 -44 -19 -255 -230 l-255 -255 0 75 0 75 255 255 c197 197 255 261 255 280
0 21 -44 -19 -255 -230 l-255 -255 0 75 0 75 255 255 c197 197 255 261 255
280 0 21 -44 -19 -255 -230 l-255 -255 0 75 0 75 255 255 c197 197 255 261
255 280 0 21 -44 -19 -255 -230 -255 -255 -255 -255 -255 -218 0 20 -5 49 -12
63 -11 25 -4 34 255 293 206 206 267 273 267 292 0 20 -50 -25 -280 -255 -263
-263 -280 -278 -297 -263 -10 9 -30 20 -45 23 -16 4 -28 10 -28 14 0 3 147
153 326 332 257 257 325 331 322 348 -2 17 -68 -44 -357 -333z m-873 -1073
l-373 -373 -75 0 -75 0 445 445 445 445 3 -72 3 -72 -373 -373z m100 -100
l-273 -273 -75 0 -75 0 345 345 345 345 3 -72 3 -72 -273 -273z m100 -100
l-173 -173 -75 0 -75 0 245 245 245 245 3 -72 3 -72 -173 -173z m100 -100
l-72 -73 -76 0 -75 0 145 145 145 145 3 -72 3 -72 -73 -73z"/>
<path d="M4585 530 c-431 -431 -525 -530 -505 -530 37 0 1043 1007 1038 1039
-2 17 -103 -78 -533 -509z"/>
<path d="M4685 430 c-351 -351 -425 -430 -405 -430 37 0 843 807 838 839 -2
17 -83 -59 -433 -409z"/>
<path d="M4785 330 c-271 -271 -325 -330 -305 -330 37 0 643 607 638 639 -2
17 -63 -39 -333 -309z"/>
<path d="M4885 230 c-191 -191 -226 -230 -205 -230 37 0 443 407 438 439 -2
18 -44 -19 -233 -209z"/>
</g>
</svg>
