<?xml version="1.0" standalone="no"?>
<!DOCTYPE svg PUBLIC "-//W3C//DTD SVG 20010904//EN"
 "http://www.w3.org/TR/2001/REC-SVG-20010904/DTD/svg10.dtd">
<svg version="1.0" xmlns="http://www.w3.org/2000/svg"
 width="256.000000pt" height="256.000000pt" viewBox="0 0 256.000000 256.000000"
 preserveAspectRatio="xMidYMid meet">
<metadata>
Created by potrace 1.16, written by Peter Selinger 2001-2019
</metadata>
<g transform="translate(0.000000,256.000000) scale(0.100000,-0.100000)"
fill="#000000" stroke="none">
<path d="M515 2525 c-5 -2 -82 -5 -171 -7 -132 -3 -165 -6 -187 -21 -31 -20
-41 -22 -31 -4 4 7 3 9 -2 4 -5 -5 -9 -14 -9 -20 -1 -7 -6 -11 -13 -10 -6 2
-16 -7 -22 -20 -11 -21 -10 -21 4 -3 20 25 20 13 1 -25 -13 -24 -15 -60 -12
-197 3 -169 6 -195 22 -209 4 -4 5 -2 1 5 -6 10 -1 11 17 7 14 -4 35 -1 47 5
15 8 20 8 16 1 -4 -6 -21 -15 -39 -20 -21 -6 -25 -10 -12 -10 31 -1 64 26 58
48 -9 36 14 30 57 -14 l44 -45 -59 -60 -59 -60 -23 22 -23 21 0 -24 c0 -14 5
-30 11 -36 8 -8 8 -13 0 -17 -13 -8 -15 -46 -2 -46 5 0 14 7 21 16 12 13 21 8
72 -43 l58 -57 -57 -58 -57 -58 -23 22 -23 21 0 -24 c0 -14 5 -30 11 -36 8 -8
8 -13 0 -17 -6 -4 -11 -19 -11 -33 l0 -26 23 21 23 22 57 -58 c32 -32 54 -61
51 -65 -4 -4 -49 -7 -100 -7 -51 0 -95 -3 -97 -7 -3 -5 89 -7 204 -5 190 3
209 4 208 20 0 10 -3 12 -6 5 -5 -15 -138 -19 -147 -5 -3 5 21 34 53 66 l57
56 22 -23 c15 -15 25 -42 29 -75 l6 -52 -211 0 c-178 0 -213 -2 -226 -16 -9
-8 -16 -21 -16 -27 0 -8 -3 -7 -9 2 -6 9 -8 2 -7 -20 1 -22 7 -34 16 -34 8 0
15 -5 15 -12 0 -6 4 -15 9 -20 5 -4 6 -3 3 3 -5 8 7 10 39 6 39 -4 52 -13 104
-66 l59 -61 -56 -57 c-51 -52 -59 -56 -73 -43 -9 8 -20 15 -23 15 -11 0 -8
-35 4 -47 8 -8 8 -13 0 -17 -6 -4 -11 -19 -11 -33 l0 -26 23 21 23 22 59 -60
60 -60 -49 -48 -48 -47 5 42 c4 34 1 45 -17 62 -12 12 -26 21 -30 21 -5 0 3
-9 18 -21 14 -11 26 -24 26 -29 0 -5 -11 2 -25 15 -29 30 -49 31 -75 5 -11
-11 -20 -16 -20 -11 0 6 10 17 22 25 12 9 18 16 12 16 -6 0 -17 -8 -25 -17
-11 -15 -13 -53 -9 -200 6 -201 9 -212 80 -260 31 -22 43 -23 210 -23 197 0
204 2 198 62 -2 23 -11 37 -28 46 -20 10 -21 12 -5 10 12 -2 29 7 42 22 l22
25 58 -57 58 -58 -60 -60 -59 -60 -31 29 -30 30 -183 3 c-135 2 -177 0 -158
-7 14 -6 42 -26 61 -45 l35 -34 -57 -58 c-54 -54 -58 -57 -75 -41 -10 9 -21
13 -25 10 -3 -4 15 -28 41 -53 25 -26 49 -44 53 -40 4 3 -1 14 -10 23 -16 16
-14 21 40 75 l57 58 58 -57 58 -57 -22 -23 -21 -23 24 0 c14 0 30 5 35 10 8 8
15 6 23 -4 6 -8 21 -12 32 -9 l20 6 -20 21 -21 22 60 59 60 59 59 -58 c37 -36
64 -56 71 -51 8 5 -8 28 -49 69 l-61 62 60 59 60 59 53 -52 c29 -29 57 -49 62
-45 4 5 -2 -11 -15 -35 -13 -23 -50 -68 -83 -99 -51 -50 -58 -60 -53 -85 4
-21 2 -27 -7 -22 -6 4 -4 -1 5 -11 17 -18 91 -28 80 -11 -3 5 2 7 10 4 10 -4
35 14 74 54 33 34 53 58 47 54 -18 -10 -16 1 4 28 l17 23 33 -30 33 -30 -21
-23 c-15 -16 -17 -23 -7 -27 7 -2 21 2 31 11 15 13 19 13 35 0 9 -8 25 -13 35
-10 17 4 17 6 -4 28 l-23 25 57 57 57 57 60 -60 60 -59 -21 -22 -20 -21 20 -6
c11 -3 26 1 32 9 10 12 14 12 28 1 9 -7 24 -12 34 -9 18 4 18 5 -2 26 l-21 22
58 57 58 57 57 -58 58 -58 -21 -19 c-20 -18 -20 -20 -3 -26 10 -4 25 -1 34 7
14 13 18 13 28 0 6 -8 21 -12 32 -9 20 6 20 6 -1 28 l-20 21 22 21 23 21 59
-66 58 -67 -62 64 c-34 35 -58 55 -52 45 18 -32 102 -109 120 -109 9 0 16 -4
15 -10 -3 -17 67 -9 85 10 9 10 12 15 6 12 -6 -4 -10 6 -10 28 1 36 15 38 17
2 0 -12 3 -16 6 -9 2 6 12 12 21 12 12 0 11 4 -6 23 l-22 23 60 59 60 59 60
-59 60 -59 -21 -22 c-15 -16 -17 -23 -7 -27 7 -2 21 2 31 11 15 14 19 14 35 0
9 -9 23 -13 30 -11 10 4 8 11 -7 27 l-21 22 60 59 60 59 58 -57 c56 -55 82
-70 82 -45 0 7 -26 39 -57 71 l-58 58 47 44 c26 25 42 45 36 45 -6 0 4 10 22
22 70 48 75 62 78 240 2 89 1 172 -3 185 -8 33 -46 49 -76 32 -13 -7 -28 -13
-33 -14 -5 0 -11 -7 -13 -15 -4 -13 -3 -13 6 0 12 17 13 4 3 -23 -7 -16 -11
-14 -37 13 l-29 30 54 55 c38 39 60 53 72 49 15 -4 18 1 18 36 0 35 -3 40 -18
36 -12 -4 -34 10 -72 49 l-54 55 57 58 c32 32 54 61 51 65 -4 4 4 7 19 7 14 0
33 3 43 7 13 5 15 3 9 -8 -5 -8 -5 -11 1 -6 5 5 9 14 9 20 0 7 7 12 15 12 9 0
15 12 16 34 1 18 -2 28 -6 21 -5 -8 -9 -6 -15 7 -5 10 -9 22 -9 28 -1 5 -10
11 -21 12 l-20 3 20 -9 c14 -7 -1 -10 -56 -10 -66 -1 -78 2 -97 22 l-22 23 58
57 c41 41 63 56 75 51 14 -5 17 1 17 36 0 34 -3 40 -13 32 -10 -9 -27 2 -72
48 l-59 60 54 55 c38 39 60 53 72 49 15 -4 18 1 18 36 0 35 -3 40 -18 36 -12
-4 -34 10 -71 48 l-54 55 35 38 34 39 19 -26 19 -25 -25 20 -24 20 18 -22 c16
-18 23 -20 50 -12 40 11 40 11 31 -3 -6 -10 -4 -10 8 0 14 11 16 39 15 200 -1
103 -6 196 -11 206 -7 15 -6 17 4 11 9 -5 11 -4 6 4 -4 6 -12 9 -17 6 -5 -4
-10 -1 -10 4 -1 6 -2 15 -3 20 0 6 -7 16 -15 23 -10 10 -12 10 -7 1 10 -18 0
-16 -31 5 -39 25 -378 29 -405 5 -10 -9 -18 -20 -18 -26 0 -5 8 -1 18 10 9 10
13 13 8 6 -5 -7 -6 -29 -3 -48 4 -26 2 -34 -6 -29 -7 3 -1 -4 12 -15 13 -12
35 -21 49 -21 26 0 26 -1 -16 -42 l-42 -43 -60 60 c-54 54 -58 60 -44 76 14
15 11 17 -35 17 -53 0 -60 -5 -39 -26 10 -10 0 -25 -45 -69 l-57 -58 -60 60
c-39 39 -56 63 -50 69 19 19 10 24 -35 24 -45 0 -54 -5 -35 -24 6 -6 -11 -30
-50 -69 l-60 -60 -57 58 c-45 44 -55 59 -45 69 21 21 14 26 -39 26 -46 0 -49
-2 -35 -17 14 -16 10 -22 -44 -76 l-60 -60 -57 58 c-45 44 -55 59 -45 69 21
21 14 26 -38 26 -52 0 -59 -5 -38 -26 10 -10 0 -25 -45 -70 l-57 -57 -57 57
c-45 45 -55 60 -45 70 21 21 14 26 -38 26 -52 0 -59 -5 -38 -26 10 -10 0 -25
-45 -69 l-57 -57 -40 39 -39 39 29 18 c17 10 30 20 30 23 0 4 -5 3 -12 -1 -8
-5 -9 -2 -5 10 4 10 7 30 7 44 0 22 2 24 11 12 9 -13 10 -13 6 0 -2 8 -8 15
-13 16 -5 0 -17 4 -27 9 -15 6 -16 10 -5 16 13 9 2 11 -17 4z m843 -244 l-43
-5 50 -6 c34 -5 9 -7 -75 -7 -80 0 -111 2 -85 7 35 6 36 7 10 9 l-29 1 54 55
54 55 54 -52 53 -53 -43 -4z m312 -36 c-18 -19 -31 -25 -50 -20 l-25 5 25 -15
c34 -19 24 -19 -41 4 -31 10 -75 22 -100 26 -39 7 -41 9 -19 16 14 4 18 7 10
8 -8 1 10 26 45 61 l60 60 59 -60 60 -59 -24 -26z m247 -32 l-57 -58 -60 60
-60 59 57 58 58 58 60 -60 60 -60 -58 -57z m-1407 112 l55 -55 -58 -57 -57
-58 -60 60 -60 59 52 53 c29 29 57 53 63 53 6 0 35 -25 65 -55z m280 0 l55
-55 -58 -58 -57 -57 -57 57 -58 58 55 55 c30 30 57 55 60 55 3 0 30 -25 60
-55z m280 0 c51 -51 53 -55 30 -56 l-25 -2 25 -5 c20 -4 11 -8 -40 -22 -121
-31 -126 -32 -110 -21 13 9 13 11 -1 11 -9 0 -24 9 -34 20 -18 20 -18 22 35
75 30 30 57 55 60 55 3 0 30 -25 60 -55z m1130 0 l55 -55 -58 -58 -57 -57 -57
57 -58 58 55 55 c30 30 57 55 60 55 3 0 30 -25 60 -55z m-1835 -255 l-60 -60
-60 60 -59 60 59 60 60 60 60 -60 60 -60 -60 -60z m1457 48 c-18 -18 5 -43 25
-26 12 9 25 1 71 -46 53 -53 56 -58 38 -71 -10 -7 -15 -20 -12 -27 4 -7 -1 -2
-11 12 -41 57 -131 144 -185 177 -32 20 -55 40 -51 46 3 5 1 7 -5 4 -5 -4 -17
-4 -25 -1 -12 4 -9 12 16 34 l32 29 60 -59 c46 -46 57 -62 47 -72z m-1172 67
l55 -55 -58 -58 -57 -57 -57 57 -58 58 55 55 c30 30 57 55 60 55 3 0 30 -25
60 -55z m1410 0 l55 -55 -58 -58 -57 -57 -57 57 -58 58 55 55 c30 30 57 55 60
55 3 0 30 -25 60 -55z m269 13 c57 -53 56 -88 -6 -142 l-44 -40 -57 57 -57 57
55 55 c30 30 57 54 61 53 4 -2 25 -20 48 -40z m-1069 -61 c0 -7 -25 -37 -55
-67 l-55 -54 -45 44 c-29 28 -41 46 -33 51 7 4 4 9 -8 11 -26 6 78 25 144 27
36 1 52 -3 52 -12z m237 -9 l41 -13 -51 -53 -52 -53 -60 61 -59 60 44 2 45 1
-40 7 c-30 6 -24 7 25 4 36 -2 84 -9 107 -16z m-432 -78 l60 -60 -58 -57 -57
-58 -57 58 -58 58 56 54 c31 30 51 56 45 59 -6 3 -7 5 -1 5 6 1 37 -26 70 -59z
m555 33 c0 -2 -10 -1 -22 2 -18 5 -16 2 7 -13 17 -11 43 -34 60 -51 l29 -32
-60 -59 -59 -60 -60 60 -60 61 56 54 c31 30 54 57 51 60 -3 3 9 0 26 -6 18 -6
32 -13 32 -16z m-1110 -38 l54 -55 -59 -60 -59 -60 -58 57 -58 57 57 58 c32
32 60 58 63 58 3 0 30 -25 60 -55z m843 -3 l57 -58 -58 -57 -58 -57 -59 60
-59 60 54 55 c30 30 57 55 60 55 3 0 31 -26 63 -58z m847 3 l55 -55 -58 -58
-57 -57 -57 57 -58 58 55 55 c30 30 57 55 60 55 3 0 30 -25 60 -55z m-1830
-140 l54 -55 -59 -60 -59 -60 -58 57 -58 57 57 58 c32 32 60 58 63 58 3 0 30
-25 60 -55z m560 0 l55 -55 -58 -58 -57 -57 -57 57 -58 58 55 55 c30 30 57 55
60 55 3 0 30 -25 60 -55z m283 -3 l57 -58 -58 -57 -58 -57 -59 60 -59 60 54
55 c30 30 57 55 60 55 3 0 31 -26 63 -58z m280 0 l57 -58 -58 -57 -58 -57 -59
60 -59 60 54 55 c30 30 57 55 60 55 3 0 31 -26 63 -58z m287 3 l54 -55 -59
-60 -59 -60 -58 57 -58 57 57 58 c32 32 60 58 63 58 3 0 30 -25 60 -55z m560
0 l55 -55 -58 -58 -57 -57 -57 57 -58 58 55 55 c30 30 57 55 60 55 3 0 30 -25
60 -55z m-467 -92 c-4 -10 -2 -14 4 -10 12 8 38 -49 48 -104 5 -30 2 -38 -32
-71 l-39 -38 -57 58 -58 58 65 62 c67 65 80 73 69 45z m-1391 -20 c15 -15 28
-34 28 -42 0 -14 2 -14 11 -1 8 12 9 10 5 -10 -3 -14 -9 -43 -13 -65 l-7 -40
-7 30 -7 30 -1 -29 c0 -17 -11 -40 -23 -53 l-22 -23 -58 57 -58 57 57 58 c32
32 60 58 62 58 3 0 18 -12 33 -27z m308 -28 l54 -55 -59 -60 -59 -60 -38 37
c-21 20 -38 46 -39 58 0 20 0 20 -9 0 -12 -29 -12 -7 1 39 8 29 13 36 20 25 7
-12 9 -12 9 0 0 15 48 71 60 71 3 0 30 -25 60 -55z m283 -3 l57 -58 -58 -57
-58 -57 -59 60 -59 60 54 55 c30 30 57 55 60 55 3 0 31 -26 63 -58z m280 0
l57 -58 -58 -57 -58 -57 -59 60 -59 60 54 55 c30 30 57 55 60 55 3 0 31 -26
63 -58z m280 -114 l-57 -58 -58 57 -58 57 57 58 57 58 58 -57 58 -57 -57 -58z
m567 117 l54 -55 -59 -60 -59 -60 -33 32 c-18 18 -33 39 -34 47 -1 9 -4 5 -8
-9 -6 -22 -8 -20 -15 19 -7 43 -5 46 41 93 26 26 50 48 53 48 3 0 30 -25 60
-55z m-1837 -257 l-57 -58 -58 57 -58 57 57 58 57 58 58 -57 58 -57 -57 -58z
m570 114 l57 -58 -60 -59 -60 -59 -60 59 -60 59 57 58 c32 32 60 58 63 58 3 0
31 -26 63 -58z m280 0 l57 -58 -58 -57 -58 -57 -59 60 -59 60 54 55 c30 30 57
55 60 55 3 0 31 -26 63 -58z m280 -114 l-57 -58 -58 57 -58 57 57 58 57 58 58
-57 58 -57 -57 -58z m280 0 l-57 -58 -58 57 -58 57 57 58 57 58 58 -57 58 -57
-57 -58z m570 114 l57 -58 -60 -59 -60 -59 -60 59 -60 59 57 58 c32 32 60 58
63 58 3 0 31 -26 63 -58z m-394 -144 l1 -88 -672 2 -673 3 668 2 667 3 -1 88
c-1 50 -4 75 -8 59 l-6 -29 -23 25 -23 25 25 20 c14 11 27 28 27 38 3 49 18
-71 18 -148z m-1156 4 c32 -32 54 -61 51 -65 -4 -4 -54 -7 -111 -7 -91 0 -103
2 -103 17 0 16 86 113 100 113 3 0 31 -26 63 -58z m280 0 c32 -32 54 -61 51
-65 -9 -9 -219 -9 -228 0 -6 6 102 123 114 123 3 0 31 -26 63 -58z m331 -64
c-6 -10 -208 -11 -218 -1 -3 4 19 33 51 65 l57 58 58 -57 c31 -31 55 -60 52
-65z m280 0 c-6 -10 -208 -11 -218 -1 -3 4 19 33 51 65 l57 58 58 -57 c31 -31
55 -60 52 -65z m246 20 l0 -28 -88 0 c-49 0 -92 3 -96 7 -3 4 19 33 51 65 l57
58 38 -37 c26 -25 38 -46 38 -65z m272 45 l58 -57 -22 -23 c-19 -20 -31 -23
-100 -23 l-78 0 0 40 c0 32 7 48 36 80 20 22 39 40 42 40 4 0 32 -26 64 -57z
m-1681 -318 c0 -19 1 -19 8 0 7 17 9 16 15 -10 6 -25 1 -34 -43 -79 l-51 -51
-60 60 -60 59 57 58 57 58 38 -37 c21 -20 38 -46 39 -58z m1676 -82 l-57 -58
-58 58 c-32 32 -62 54 -67 50 -5 -5 20 22 55 60 l64 67 61 -60 60 -60 -58 -57z
m-1407 112 l54 -55 -54 -55 c-30 -30 -57 -55 -61 -55 -3 0 -11 10 -18 23 -11
22 -11 22 -6 -3 10 -43 -11 -1 -34 69 -23 69 -27 95 -11 71 8 -13 10 -13 10
-1 0 18 39 61 55 61 6 0 35 -25 65 -55z m288 2 l52 -53 -60 -59 -60 -60 -57
58 -58 57 55 55 c30 30 59 55 65 55 6 0 34 -24 63 -53z m280 0 l52 -53 -60
-59 -60 -60 -57 58 -58 57 55 55 c30 30 59 55 65 55 6 0 34 -24 63 -53z m279
1 l53 -52 -57 -58 -57 -58 -58 57 -58 57 52 53 c29 29 57 53 62 53 6 0 34 -23
63 -52z m253 27 c22 -23 22 -27 9 -72 -17 -61 -48 -142 -49 -126 0 6 -25 35
-55 64 l-56 53 53 53 c29 29 57 53 63 53 7 0 22 -11 35 -25z m-1523 -282 l-57
-58 -60 60 -60 59 57 58 58 58 60 -60 60 -60 -58 -57z m843 2 l-60 -60 -57 58
-58 57 60 60 59 60 58 -57 58 -58 -60 -60z m280 0 l-60 -60 -57 58 -58 57 60
60 59 60 58 -57 58 -58 -60 -60z m330 46 c-5 -9 -29 -36 -54 -61 l-46 -44 -60
59 -60 59 57 58 57 58 58 -57 c43 -43 55 -60 48 -72z m-890 64 l55 -55 -58
-58 -57 -57 -57 57 -58 58 55 55 c30 30 57 55 60 55 3 0 30 -25 60 -55z m1128
-112 c-56 -56 -57 -57 -78 -38 -11 10 -20 25 -20 33 0 12 -3 12 -15 -4 -8 -10
3 24 23 77 l37 96 55 -53 55 -54 -57 -57z m282 112 l55 -55 -58 -58 -57 -57
-57 57 -58 58 55 55 c30 30 57 55 60 55 3 0 30 -25 60 -55z m-1543 -148 c43
-43 46 -49 31 -60 -12 -10 -14 -17 -6 -31 9 -17 11 -17 29 0 19 17 22 16 76
-38 l56 -56 -25 -31 -26 -30 -50 62 c-67 84 -113 159 -107 175 2 7 1 10 -5 7
-10 -6 -23 15 -40 62 -9 26 -9 27 5 8 8 -11 36 -42 62 -68z m-290 -104 l-57
-58 -60 60 -60 59 57 58 58 58 60 -60 60 -60 -58 -57z m843 2 l-60 -60 -57 58
-58 57 60 60 59 60 58 -57 58 -58 -60 -60z m285 -5 l-60 -60 -60 60 -59 60 59
60 60 60 60 -60 60 -60 -60 -60z m-565 115 l55 -55 -58 -58 -57 -57 -57 57
-58 58 55 55 c30 30 57 55 60 55 3 0 30 -25 60 -55z m1130 0 l55 -55 -58 -58
-57 -57 -57 57 -58 58 55 55 c30 30 57 55 60 55 3 0 30 -25 60 -55z m-1835
-255 l-60 -60 -60 60 -59 60 59 60 60 60 60 -60 60 -60 -60 -60z m1130 0 l-60
-60 -60 60 -59 60 59 60 60 60 60 -60 60 -60 -60 -60z m-845 115 l55 -55 -58
-58 -57 -57 -57 57 -58 58 55 55 c30 30 57 55 60 55 3 0 30 -25 60 -55z m560
0 l55 -55 -58 -58 -57 -57 -57 57 -58 58 55 55 c30 30 57 55 60 55 3 0 30 -25
60 -55z m850 0 l55 -55 -58 -58 -57 -57 -57 57 -58 58 55 55 c30 30 57 55 60
55 3 0 30 -25 60 -55z m269 13 c57 -53 56 -88 -6 -142 l-44 -40 -57 57 -57 57
55 55 c30 30 57 54 61 53 4 -2 25 -20 48 -40z m-1819 -153 l54 -55 -29 -30
c-26 -27 -35 -30 -89 -30 -51 0 -64 4 -88 27 l-28 27 57 58 c32 32 60 58 63
58 3 0 30 -25 60 -55z m280 0 l55 -55 -58 -58 -57 -57 -57 57 -58 58 55 55
c30 30 57 55 60 55 3 0 30 -25 60 -55z m562 -2 l58 -57 -22 -23 c-12 -13 -31
-23 -42 -24 -18 -1 -17 -2 4 -8 20 -6 15 -9 -30 -15 -66 -8 -76 -5 -114 40
l-29 35 54 55 c29 30 56 54 58 54 3 0 31 -26 63 -57z m568 2 l54 -55 -59 -60
-59 -60 -58 57 -58 57 57 58 c32 32 60 58 63 58 3 0 30 -25 60 -55z m280 0
l54 -55 -29 -30 c-25 -26 -35 -30 -85 -30 -50 0 -60 4 -85 30 l-29 30 54 55
c30 30 57 55 60 55 3 0 30 -25 60 -55z m-502 -163 c1 37 7 70 13 74 6 4 36
-18 67 -49 l56 -56 -62 -65 -62 -64 -15 51 c-9 31 -14 84 -13 136 l2 86 6 -90
c6 -88 6 -89 8 -23z m321 65 c8 -11 5 -19 -14 -37 -14 -13 -25 -28 -25 -33 0
-5 9 2 21 17 12 15 30 26 42 25 21 -1 21 -2 2 -6 -11 -3 -26 -10 -32 -15 -16
-13 -17 -70 -1 -86 8 -8 67 -13 188 -14 l175 -2 -175 -6 c-96 -3 -171 -7 -166
-8 5 -1 -1 -13 -14 -27 l-24 -25 -58 57 -58 57 57 58 c32 32 60 58 64 58 4 0
12 -6 18 -13z m-449 -100 c0 -49 23 -134 51 -189 11 -21 17 -38 14 -38 -2 0
-16 21 -29 48 -28 53 -35 52 -9 -2 16 -34 16 -37 -2 -56 -19 -21 -19 -21 -77
37 l-58 57 50 51 c42 43 50 56 50 88 0 26 -4 36 -12 31 -7 -4 -8 -3 -4 4 15
24 26 11 26 -31z m-560 -37 c0 8 27 -12 60 -45 l60 -59 -57 -59 -58 -58 -32
35 c-18 20 -33 33 -33 29 0 -3 -3 -4 -6 -1 -3 4 1 19 9 35 8 15 20 52 27 82 9
36 15 49 21 40 7 -12 9 -11 9 1z m910 -45 l54 -55 -59 -60 -59 -60 -58 57 -58
57 57 58 c32 32 60 58 63 58 3 0 30 -25 60 -55z m-552 -18 l42 -43 -58 -57
-58 -57 -59 60 -59 60 39 40 c55 57 95 56 153 -3z m-838 -2 l34 -35 -59 -60
-59 -60 -58 57 -58 57 37 38 c32 33 43 38 83 38 40 0 51 -5 80 -35z m1693 -3
l37 -38 -60 -59 -60 -59 -60 59 -60 59 37 38 c32 33 43 38 83 38 40 0 51 -5
83 -38z"/>
</g>
</svg>
